<svg xmlns="http://www.w3.org/2000/svg" viewBox="0 0 480 320" role="img" aria-label="M.2 motherboard with four slots">
  <defs>
    <linearGradient id="board" x1="0" y1="0" x2="1" y2="1"><stop offset="0" stop-color="#eef2f5"/><stop offset="1" stop-color="#d9e0e6"/></linearGradient>
  </defs>
  <rect x="16" y="16" width="448" height="288" rx="18" fill="url(#board)" stroke="#b7c1ca" stroke-width="4"/>
  <path d="M30 70h420M30 252h420M110 30v240M370 30v240" stroke="#c3ccd4" stroke-width="2"/>
  <rect x="178" y="28" width="124" height="64" rx="8" fill="#cbd3da" stroke="#aeb9c3" stroke-width="2"/>
  <rect x="196" y="42" width="88" height="36" rx="4" fill="#9da9b4"/>
  <g fill="#c1cbd3" stroke="#9eabb5" stroke-width="2"><circle cx="48" cy="48" r="10"/><circle cx="432" cy="48" r="10"/><circle cx="48" cy="272" r="10"/><circle cx="432" cy="272" r="10"/></g>
  <g fill="#f8fafb" stroke="#aeb8c1" stroke-width="3">
    <rect x="42" y="94" width="182" height="66" rx="7"/><rect x="254" y="94" width="182" height="66" rx="7"/>
    <rect x="42" y="174" width="182" height="66" rx="7"/><rect x="254" y="174" width="182" height="66" rx="7"/>
  </g>
  <g fill="#8e9ba6"><rect x="54" y="116" width="146" height="12" rx="4"/><rect x="266" y="116" width="146" height="12" rx="4"/><rect x="54" y="196" width="146" height="12" rx="4"/><rect x="266" y="196" width="146" height="12" rx="4"/></g>
  <g fill="#c0c9d0"><circle cx="232" cy="127" r="9"/><circle cx="248" cy="207" r="9"/></g>
  <path d="M32 266h416" stroke="#aab5bf" stroke-width="8"/><g fill="#96a3ae"><rect x="70" y="278" width="44" height="10" rx="3"/><rect x="130" y="278" width="44" height="10" rx="3"/><rect x="306" y="278" width="44" height="10" rx="3"/><rect x="366" y="278" width="44" height="10" rx="3"/></g>
</svg>
